<svg xmlns="http://www.w3.org/2000/svg" version="1.1" xmlns:xlink="http://www.w3.org/1999/xlink" xmlns:svgjs="http://svgjs.dev/svgjs" width="1500" height="1500" viewBox="0 0 1500 1500"><rect width="1500" height="1500" fill="#ffffff"></rect><g transform="matrix(0.6666666666666666,0,0,0.6666666666666666,249.39429943673224,699.1097170575088)"><svg viewBox="0 0 396 40" data-background-color="#111111" preserveAspectRatio="xMidYMid meet" height="151" width="1500" xmlns="http://www.w3.org/2000/svg" xmlns:xlink="http://www.w3.org/1999/xlink"><g id="tight-bounds" transform="matrix(1,0,0,1,0.2401425761408973,0.22130448046004858)"><svg viewBox="0 0 395.52 39.557391039079896" height="39.557391039079896" width="395.52"><g><svg viewBox="0 0 395.52 39.557391039079896" height="39.557391039079896" width="395.52"><g><svg viewBox="0 0 395.52 39.557391039079896" height="39.557391039079896" width="395.52"><g id="textblocktransform"><svg viewBox="0 0 395.52 39.557391039079896" height="39.557391039079896" width="395.52" id="textblock"><g><svg viewBox="0 0 395.52 39.557391039079896" height="39.557391039079896" width="395.52"><g transform="matrix(1,0,0,1,0,0)"><svg width="395.52" viewBox="1.005555444455 -40.05 405.414444555545 40.55" height="39.557391039079896" data-palette-color="#ffffff"><path d="M15.75 0.25L15.75 0.25Q14.75 0.25 13.63-0.08 12.5-0.4 12-1.3L12-1.3Q10.85-5.2 9.6-9.3 8.35-13.4 7.1-17.35L7.1-17.35Q5.7-22 4.1-27.03 2.5-32.05 1.1-36.65L1.1-36.65Q0.8-37.75 1.45-38.58 2.1-39.4 3.3-39.8L3.3-39.8Q4.05-40 4.6-40L4.6-40Q6.3-40 6.8-38.3L6.8-38.3 10.5-26.45Q11-24.65 11.68-22.5 12.35-20.35 13.05-18.1 13.75-15.85 14.45-13.63 15.15-11.4 15.75-9.5L15.75-9.5Q16.7-12.65 17.82-16.32 18.95-20 20.13-23.8 21.3-27.6 22.45-31.33 23.6-35.05 24.6-38.3L24.6-38.3Q25.15-40 26.75-40L26.75-40Q27.35-40 28.15-39.8L28.15-39.8Q30.9-39.05 30.3-36.65L30.3-36.65Q27.6-27.9 24.85-19 22.1-10.1 19.4-1.3L19.4-1.3Q19-0.3 17.93-0.03 16.85 0.25 15.75 0.25ZM41.2-37.55L41.2-2.1Q41.2 0.3 38.2 0.3L38.2 0.3Q35.25 0.3 35.25-2.1L35.25-2.1 35.25-37.55Q35.25-39.95 38.2-39.95L38.2-39.95Q41.2-39.95 41.2-37.55L41.2-37.55ZM72.8-0.6L63.34-16.45 59.5-16.45Q58.65-16.45 58.17-17.13 57.7-17.8 57.7-18.95L57.7-18.95Q57.7-21.5 59.8-21.5L59.8-21.5 65.65-21.5Q67.5-21.5 68.25-22.55 69-23.6 69-24.85L69-24.85 69-31.3Q69-32.55 68.25-33.6 67.5-34.65 65.65-34.65L65.65-34.65 55.09-34.65 55.09-2.05Q55.09 0.35 52.15 0.35L52.15 0.35Q49.2 0.35 49.2-2.05L49.2-2.05 49.2-36.7Q49.2-38.5 50.12-39.1 51.05-39.7 52.34-39.7L52.34-39.7 66.9-39.7Q68.19-39.7 69.59-39.15 71-38.6 72.3-37.75L72.3-37.75 72.25-37.75Q73.55-36.8 74.25-35.27 74.94-33.75 74.94-31.75L74.94-31.75 74.94-24.45Q74.94-20.4 72.25-18.4L72.25-18.4Q71.69-18 71.07-17.65 70.44-17.3 69.8-16.95L69.8-16.95 77.8-3.75Q77.94-3.5 78.09-3.1 78.25-2.7 78.25-2.45L78.25-2.45Q78.25-1.25 76.55-0.15L76.55-0.15 76.55-0.2Q75.4 0.5 74.59 0.5L74.59 0.5Q73.44 0.5 72.75-0.65L72.75-0.65 72.8-0.6ZM96.24-34.65L96.24-2Q96.24 0.4 93.24 0.4L93.24 0.4Q90.29 0.4 90.29-2L90.29-2 90.29-34.65 81.54-34.65Q79.74-34.65 79.64-37.2L79.64-37.2Q79.64-39.7 81.54-39.7L81.54-39.7 104.99-39.7Q106.89-39.7 106.79-37.2L106.79-37.2Q106.79-34.65 104.99-34.65L104.99-34.65 96.24-34.65ZM138.19-37.55L138.19-8Q138.19-3.95 135.49-1.95L135.49-1.95Q134.19-1 132.81-0.48 131.44 0.05 130.14 0.05L130.14 0.05 119.24 0.05Q117.94 0.05 116.57-0.48 115.19-1 113.89-1.95L113.89-1.95Q112.59-2.95 111.89-4.42 111.19-5.9 111.19-8L111.19-8 111.19-37.55Q111.19-39.95 114.14-39.95L114.14-39.95Q117.14-39.95 117.14-37.55L117.14-37.55 117.14-8.4Q117.14-7.1 117.89-6.05 118.64-5 120.49-5L120.49-5 128.89-5Q130.74-5 131.49-6.05 132.24-7.1 132.24-8.4L132.24-8.4 132.24-37.55Q132.24-39.95 135.19-39.95L135.19-39.95Q138.19-39.95 138.19-37.55L138.19-37.55ZM169.99-1.2L158.99-34.8 148.04-1.2 148.04-1.25Q147.74-0.5 147.21-0.03 146.69 0.45 145.94 0.45L145.94 0.45Q145.54 0.45 145.16 0.38 144.79 0.3 144.39 0.2L144.39 0.2 144.44 0.2Q141.59-0.7 142.34-3L142.34-3 153.74-37.65Q153.99-38.45 154.61-39 155.24-39.55 156.09-39.65L156.09-39.65Q156.94-39.8 157.74-39.88 158.54-39.95 158.99-39.95L158.99-39.95Q159.44-39.95 160.24-39.88 161.04-39.8 161.89-39.7L161.89-39.7Q162.59-39.6 163.26-38.95 163.94-38.3 164.29-37.65L164.29-37.65Q167.09-29.05 169.96-20.33 172.84-11.6 175.64-3L175.64-3Q176.34-0.7 173.54 0.2L173.54 0.2Q173.14 0.3 172.81 0.38 172.49 0.45 172.09 0.45L172.09 0.45Q171.39 0.45 170.81-0.03 170.24-0.5 169.99-1.25L169.99-1.25 169.99-1.2ZM162.74-12L162.74-12Q162.74-10.4 161.61-9.28 160.49-8.15 158.89-8.15L158.89-8.15Q157.29-8.15 156.19-9.28 155.09-10.4 155.09-12L155.09-12Q155.09-13.6 156.19-14.73 157.29-15.85 158.89-15.85L158.89-15.85Q160.49-15.85 161.61-14.73 162.74-13.6 162.74-12ZM202.74 0.05L183.29 0.05Q181.44 0.05 180.79-0.9 180.14-1.85 180.14-3L180.14-3 180.14-37.55Q180.14-39.95 183.04-39.95L183.04-39.95Q186.04-39.95 186.04-37.55L186.04-37.55 186.04-5 202.74-5Q204.54-5 204.54-2.55L204.54-2.55Q204.64 0.05 202.74 0.05L202.74 0.05ZM235.88 0.25L235.88 0.25Q234.88 0.25 233.76-0.08 232.63-0.4 232.13-1.3L232.13-1.3Q230.98-5.2 229.73-9.3 228.48-13.4 227.23-17.35L227.23-17.35Q225.83-22 224.23-27.03 222.63-32.05 221.23-36.65L221.23-36.65Q220.93-37.75 221.58-38.58 222.23-39.4 223.43-39.8L223.43-39.8Q224.18-40 224.73-40L224.73-40Q226.43-40 226.93-38.3L226.93-38.3 230.63-26.45Q231.13-24.65 231.81-22.5 232.48-20.35 233.18-18.1 233.88-15.85 234.58-13.63 235.28-11.4 235.88-9.5L235.88-9.5Q236.83-12.65 237.96-16.32 239.08-20 240.26-23.8 241.43-27.6 242.58-31.33 243.73-35.05 244.73-38.3L244.73-38.3Q245.28-40 246.88-40L246.88-40Q247.48-40 248.28-39.8L248.28-39.8Q251.03-39.05 250.43-36.65L250.43-36.65Q247.73-27.9 244.98-19 242.23-10.1 239.53-1.3L239.53-1.3Q239.13-0.3 238.06-0.03 236.98 0.25 235.88 0.25ZM263.18-39.7L274.08-39.7Q275.38-39.7 276.78-39.15 278.18-38.6 279.48-37.75L279.48-37.75 279.43-37.75Q280.73-36.8 281.43-35.27 282.13-33.75 282.13-31.75L282.13-31.75 282.13-8Q282.13-3.95 279.43-1.95L279.43-1.95Q278.13-1 276.75-0.48 275.38 0.05 274.08 0.05L274.08 0.05 263.18 0.05Q261.88 0.05 260.5-0.48 259.13-1 257.83-1.95L257.83-1.95Q256.53-2.95 255.83-4.42 255.13-5.9 255.13-8L255.13-8 255.13-31.75Q255.13-33.75 255.83-35.27 256.53-36.8 257.83-37.75L257.83-37.75 257.78-37.75Q259.08-38.6 260.48-39.15 261.88-39.7 263.18-39.7L263.18-39.7ZM264.43-5L272.83-5Q274.68-5 275.43-6.05 276.18-7.1 276.18-8.4L276.18-8.4 276.18-31.3Q276.18-32.55 275.43-33.6 274.68-34.65 272.83-34.65L272.83-34.65 264.43-34.65Q262.58-34.65 261.83-33.6 261.08-32.55 261.08-31.3L261.08-31.3 261.08-8.4Q261.08-7.1 261.83-6.05 262.58-5 264.43-5L264.43-5ZM313.28-0.6L303.82-16.45 299.98-16.45Q299.13-16.45 298.65-17.13 298.18-17.8 298.18-18.95L298.18-18.95Q298.18-21.5 300.28-21.5L300.28-21.5 306.13-21.5Q307.98-21.5 308.73-22.55 309.48-23.6 309.48-24.85L309.48-24.85 309.48-31.3Q309.48-32.55 308.73-33.6 307.98-34.65 306.13-34.65L306.13-34.65 295.57-34.65 295.57-2.05Q295.57 0.35 292.63 0.35L292.63 0.35Q289.68 0.35 289.68-2.05L289.68-2.05 289.68-36.7Q289.68-38.5 290.6-39.1 291.53-39.7 292.82-39.7L292.82-39.7 307.38-39.7Q308.68-39.7 310.07-39.15 311.48-38.6 312.78-37.75L312.78-37.75 312.73-37.75Q314.03-36.8 314.73-35.27 315.43-33.75 315.43-31.75L315.43-31.75 315.43-24.45Q315.43-20.4 312.73-18.4L312.73-18.4Q312.18-18 311.55-17.65 310.93-17.3 310.28-16.95L310.28-16.95 318.28-3.75Q318.43-3.5 318.57-3.1 318.73-2.7 318.73-2.45L318.73-2.45Q318.73-1.25 317.03-0.15L317.03-0.15 317.03-0.2Q315.88 0.5 315.07 0.5L315.07 0.5Q313.93 0.5 313.23-0.65L313.23-0.65 313.28-0.6ZM336.72-34.65L336.72-2Q336.72 0.4 333.72 0.4L333.72 0.4Q330.77 0.4 330.77-2L330.77-2 330.77-34.65 322.02-34.65Q320.22-34.65 320.12-37.2L320.12-37.2Q320.12-39.7 322.02-39.7L322.02-39.7 345.47-39.7Q347.37-39.7 347.27-37.2L347.27-37.2Q347.27-34.65 345.47-34.65L345.47-34.65 336.72-34.65ZM373.22 0.05L354.92 0.05Q353.07 0.05 352.42-0.9 351.77-1.85 351.77-3L351.77-3 351.77-36.7Q351.77-37.85 352.42-38.78 353.07-39.7 354.92-39.7L354.92-39.7 372.32-39.7Q374.17-39.7 374.27-37.2L374.27-37.2Q374.37-34.65 372.32-34.65L372.32-34.65 357.67-34.65 357.67-5 373.22-5Q375.07-5 375.12-2.55L375.12-2.55Q375.22 0.05 373.22 0.05L373.22 0.05ZM370.47-20.65L370.47-20.65Q370.47-18.9 369.25-17.7 368.02-16.5 366.27-16.5L366.27-16.5Q364.57-16.5 363.37-17.7 362.17-18.9 362.17-20.65L362.17-20.65Q362.17-22.4 363.37-23.6 364.57-24.8 366.27-24.8L366.27-24.8Q368.02-24.8 369.25-23.6 370.47-22.4 370.47-20.65ZM392.22-24L400.97-38.8Q401.37-39.35 401.79-39.7 402.22-40.05 402.92-40.05L402.92-40.05Q403.62-40.05 404.52-39.6L404.52-39.6Q406.42-38.7 406.42-37.3L406.42-37.3Q406.42-36.95 406.34-36.58 406.27-36.2 406.07-35.95L406.07-35.95 406.07-36 396.42-19.6 405.82-3.7Q406.07-3.1 406.07-2.5L406.07-2.5Q406.07-1.05 404.47-0.2L404.47-0.2Q403.27 0.4 402.47 0.4L402.47 0.4Q401.47 0.4 400.67-0.75L400.67-0.75 392.07-15.3Q391.12-13.65 390.02-11.8 388.92-9.95 387.79-8.03 386.67-6.1 385.54-4.25 384.42-2.4 383.47-0.75L383.47-0.75Q383.07-0.2 382.67 0.1 382.27 0.4 381.67 0.4L381.67 0.4Q380.82 0.4 379.72-0.2L379.72-0.2Q378.02-1.15 378.02-2.5L378.02-2.5Q378.02-2.85 378.12-3.13 378.22-3.4 378.37-3.75L378.37-3.75 378.37-3.7Q380.67-7.65 383.09-11.7 385.52-15.75 387.87-19.75L387.87-19.75 378.32-36Q378.17-36.3 378.02-36.7 377.87-37.1 377.87-37.35L377.87-37.35Q377.87-38.7 379.87-39.6L379.87-39.6Q380.67-40.05 381.47-40.05L381.47-40.05Q382.12-40.05 382.57-39.7 383.02-39.35 383.42-38.8L383.42-38.8 392.22-24Z" opacity="1" transform="matrix(1,0,0,1,0,0)" fill="#000000" class="wordmark-text-0" data-fill-palette-color="primary" id="text-0"></path></svg></g></svg></g></svg></g></svg></g></svg></g><defs></defs></svg><rect width="395.52" height="39.557391039079896" fill="none" stroke="none" visibility="hidden"></rect></g></svg></g></svg>